# xmcd
#
# Track frame offsets:
# 150
# 16744
# 35720
# 54767
# 70790
# 90315
# 110130
# 130024
# 152146
# 166416
#
# Disc length: 2442 seconds
#
# Revision: 0
# Processed by: cddbd v1.4PL0 Copyright (c) Steve Scherf et al.
# Submitted via: Audion 3.0.2 (http://www.panic.com/audion/)
#
DISCID=7509880a
DTITLE=Travis - The Man Who
DYEAR=1900
DGENRE=
TTITLE0=Writing To Reach You
TTITLE1=The Fear
TTITLE2=As You Are
TTITLE3=Driftwood
TTITLE4=The last Laugh Of the Laughter
TTITLE5=Turn
TTITLE6=Why does it Always Rain On Me?
TTITLE7=Luv
TTITLE8=She's So Strange
TTITLE9=Slide show/Blue Flashing Lights
EXTD=
EXTT0=
EXTT1=
EXTT2=
EXTT3=
EXTT4=
EXTT5=
EXTT6=
EXTT7=
EXTT8=
EXTT9=
PLAYORDER=
